<svg width="37" height="25" viewBox="0 0 37 25" fill="none" xmlns="http://www.w3.org/2000/svg">
<rect width="37" height="25" rx="5" fill="#F3F4EF"/>
<path d="M22.4287 7C25.8973 7 28.7099 9.62857 28.71 12.8711C28.71 16.1137 25.8974 18.7422 22.4287 18.7422C20.8734 18.7421 19.4514 18.2123 18.3545 17.3369C17.2576 18.2122 15.8355 18.7422 14.2803 18.7422C10.8118 18.7421 8.00004 16.1135 8 12.8711C8 9.62862 10.8117 7.00013 14.2803 7C15.8353 7 17.2576 7.52925 18.3545 8.4043C19.4513 7.52918 20.8737 7.00006 22.4287 7Z" fill="#ED0006"/>
<path d="M22.4258 7C25.8944 7 28.707 9.62857 28.707 12.8711C28.707 16.1137 25.8944 18.7422 22.4258 18.7422C20.8705 18.7421 19.4485 18.2123 18.3516 17.3369C19.7011 16.26 20.5586 14.6598 20.5586 12.8711C20.5586 11.0822 19.7014 9.48116 18.3516 8.4043C19.4484 7.52918 20.8708 7.00006 22.4258 7Z" fill="#F9A000"/>
<path d="M18.3545 8.40039C19.7043 9.47725 20.5615 11.0783 20.5615 12.8672C20.5615 14.6559 19.704 16.2561 18.3545 17.333C17.0051 16.2561 16.1484 14.6558 16.1484 12.8672C16.1485 11.0784 17.0048 9.47725 18.3545 8.40039Z" fill="#FF5E00"/>
</svg>
